<svg id="Capa_1" enable-background="new 0 0 512 512" height="512" viewBox="0 0 512 512" fill="white" width="512" xmlns="http://www.w3.org/2000/svg"><g><circle cx="196" cy="195" r="15"/><circle cx="316" cy="195" r="15"/><path d="m38.408 167.368c6.891-4.598 8.75-13.912 4.152-20.803-8.217-12.314-12.56-26.687-12.56-41.565 0-41.355 33.645-75 75-75 26.047 0 50.497 13.746 64.24 34.858-23.794 8.934-42.933 29.888-47.942 56.418-34.832 6.461-61.298 37.05-61.298 73.724v121c0 8.284 6.716 15 15 15 17.641 0 34.378-6.224 47.846-17.651 9.974 47.659 45.221 87.602 93.432 102.532-3.364 6.303-5.278 13.49-5.278 21.119 0 7.895 2.079 15.669 6.013 22.482l25.997 45.019c2.68 4.64 7.631 7.499 12.99 7.499s10.31-2.858 12.99-7.499l25.999-45.021c3.932-6.812 6.011-14.586 6.011-22.48 0-7.625-1.913-14.81-5.274-21.11 45.511-14.649 80.804-54.472 91.735-103.153 13.585 11.81 30.591 18.263 48.539 18.263 8.284 0 15-6.716 15-15v-121c0-36.668-26.458-67.253-61.28-73.72-4.815-25.925-22.995-47.202-47.109-56.386 13.545-21.372 37.333-34.894 63.389-34.894 41.907 0 76 33.645 76 75 0 16.382-5.184 31.942-14.99 44.996-4.976 6.624-3.64 16.027 2.983 21.002 6.624 4.976 16.027 3.639 21.002-2.983 13.742-18.292 21.005-40.082 21.005-63.015 0-57.897-47.551-105-106-105-40.816 0-77.657 23.71-94.876 60h-110.257c-16.927-35.477-53.991-60-95.867-60-57.897 0-105 47.103-105 105 0 20.825 6.087 40.955 17.604 58.216 4.606 6.902 13.923 8.743 20.804 4.152zm81.592 87.632c0 19.59-12.718 36.791-30 43.265v-103.265c0-19.555 12.541-36.228 30-42.42zm271-102.42c17.459 6.192 30 22.865 30 42.42v103.265c-17.282-6.474-30-23.675-30-43.265zm-121.992 291.899-13.008 22.526-13.007-22.525c-1.323-2.29-1.993-4.807-1.993-7.48 0-8.269 6.726-14.997 14.995-15h.005s.003 0 .005 0c8.269.003 14.995 6.73 14.995 15 0 2.673-.67 5.19-1.992 7.479zm-73.008-354.479h120c24.813 0 45 20.187 45 45v145.843c0 55.321-39.168 102.74-90 110.101v-38.731l25.606-25.606c5.858-5.858 5.858-15.355 0-21.213-5.857-5.858-15.355-5.858-21.213 0l-19.393 19.393-19.394-19.394c-5.857-5.858-15.355-5.858-21.213 0s-5.858 15.355 0 21.213l25.607 25.607v38.71c-51.316-7.375-91-52.426-91-104.923v-151c0-24.393 21.065-45 46-45z"/></g></svg>